<svg xmlns="http://www.w3.org/2000/svg" xmlns:xlink="http://www.w3.org/1999/xlink" width="18" height="14" version="1.1" viewBox="0 0 18 14"><title>image</title><desc>Created with Sketch.</desc><g id="Symbols" fill="none" fill-rule="evenodd" stroke="none" stroke-width="1"><g id="Image-22px-Solid" fill="#888"><path id="image" d="M9.25,12 L15.5176792,12 C15.7911357,12 16,11.7782068 16,11.504611 L16,9 L11,4 L6.97222222,9.23611111 L4.5,8 L2,10.5 L2,11.4921684 C2,11.7786698 2.22673949,12 2.50643682,12 L9.25,12 Z M0,2.00585866 C0,0.898053512 0.892622799,0 1.99508929,0 L16.0049107,0 C17.1067681,0 18,0.897060126 18,2.00585866 L18,11.9941413 C18,13.1019465 17.1073772,14 16.0049107,14 L1.99508929,14 C0.893231902,14 0,13.1029399 0,11.9941413 L0,2.00585866 Z M4.5,7 C5.88071187,7 7,5.88071187 7,4.5 C7,3.11928813 5.88071187,2 4.5,2 C3.11928813,2 2,3.11928813 2,4.5 C2,5.88071187 3.11928813,7 4.5,7 Z"/></g></g></svg>