<svg xmlns="http://www.w3.org/2000/svg" xmlns:xlink="http://www.w3.org/1999/xlink" width="1160" height="282" version="1.1" viewBox="0 0 1160 282"><title>746CD678-3498-40DD-881C-3BDFFD316D52@3x</title><desc>Created with sketchtool.</desc><defs><path id="path-1" d="M45.2434076,1.09077368 L209.345,278.415757 L15.8088163,278.420668 C5.52850892,245.342422 0,210.243077 0,173.88174 C0,111.246765 16.4044688,52.3564314 45.2434076,1.09077368 Z M735,173.88174 C735,210.242944 729.471531,245.342166 719.191296,278.420305 L521.611,278.415757 L686.362,0.000757320254 L689.140534,0.000128493021 C718.361795,51.5204993 735,110.802121 735,173.88174 Z"/></defs><g id="Bulk-Smush" fill="none" fill-rule="evenodd" stroke="none" stroke-width="1"><g id="Free-/-Bulk-Smush---Large-screen" transform="translate(-410.000000, -242.000000)"><g id="Body" transform="translate(410.000000, 0.000000)"><g id="Bulk-Smush-/-Advanced-Settings---Free-Upsell-widget-large-screen" transform="translate(0.000000, 183.000000)"><g id="Graphic/widget-background-smush-icon" transform="translate(0.000000, 59.225748)"><rect id="Rectangle" width="1160" height="280.395" x="0" y="1" fill="#F6F6F6"/><rect id="Rectangle" width="642" height="280.395" x="259" y="1" fill="#FAFAFA"/><rect id="Rectangle" width="1160" height="1" x="0" y=".013" fill="#FFF" transform="translate(580.000000, 0.506346) scale(1, -1) translate(-580.000000, -0.506346)"/><g id="smush-icon-background" transform="translate(216.000000, 1.987307)"><g id="Combined-Shape"><mask id="mask-2" fill="#fff"><use xlink:href="#path-1"/></mask><use fill="#F6F6F6" xlink:href="#path-1"/></g><polygon id="Rectangle" fill="#EAEAEA" points="244 80.395 491 80.395 367.5 279.408" opacity=".365"/></g></g></g></g></g></g></svg>