<svg xmlns="http://www.w3.org/2000/svg" xmlns:xlink="http://www.w3.org/1999/xlink" width="400" height="400" version="1.1" viewBox="0 0 400 400"><title>blog_classic_rounded</title><desc>Created with Sketch.</desc><g id="Desktop" fill="none" fill-rule="evenodd" stroke="none" stroke-width="1" transform="translate(-400.000000, 0.000000)"><g id="Blog_Layouts"><g id="blog_classic_rounded" transform="translate(400.000000, 0.000000)"><g id="Square-Wrapper" stroke="#0085BA" stroke-width="2"><rect id="Rectangle" width="398" height="398" x="1" y="1" rx="6"/></g><g id="Post-1" fill="#0085BA" transform="translate(40.000000, 60.000000)"><g id="Rounded-Featured-Image"><rect id="Rectangle-2" width="80" height="80" x="0" y="0" rx="40"/></g><g id="Group-Copy" transform="translate(100.000000, 20.000000)"><g id="Heading-Line"><rect id="Rectangle-3" width="50" height="4" x="0" y="0"/></g><g id="Heading-Line" transform="translate(0.000000, 18.000000)"><rect id="Rectangle-3" width="100" height="4" x="0" y="0"/></g><g id="Heading-Line" transform="translate(0.000000, 36.000000)"><rect id="Rectangle-3" width="100" height="4" x="0" y="0"/></g></g></g><g id="Post-1-Copy" fill="#0085BA" transform="translate(40.000000, 160.000000)"><g id="Rounded-Featured-Image"><rect id="Rectangle-2" width="80" height="80" x="0" y="0" rx="40"/></g><g id="Group-Copy" transform="translate(100.000000, 20.000000)"><g id="Heading-Line"><rect id="Rectangle-3" width="50" height="4" x="0" y="0"/></g><g id="Heading-Line" transform="translate(0.000000, 18.000000)"><rect id="Rectangle-3" width="100" height="4" x="0" y="0"/></g><g id="Heading-Line" transform="translate(0.000000, 36.000000)"><rect id="Rectangle-3" width="100" height="4" x="0" y="0"/></g></g></g><g id="Post-1-Copy-2" fill="#0085BA" transform="translate(40.000000, 260.000000)"><g id="Rounded-Featured-Image"><rect id="Rectangle-2" width="80" height="80" x="0" y="0" rx="40"/></g><g id="Group-Copy" transform="translate(100.000000, 20.000000)"><g id="Heading-Line"><rect id="Rectangle-3" width="50" height="4" x="0" y="0"/></g><g id="Heading-Line" transform="translate(0.000000, 18.000000)"><rect id="Rectangle-3" width="100" height="4" x="0" y="0"/></g><g id="Heading-Line" transform="translate(0.000000, 36.000000)"><rect id="Rectangle-3" width="100" height="4" x="0" y="0"/></g></g></g></g></g></g></svg>