<svg xmlns="http://www.w3.org/2000/svg" xmlns:xlink="http://www.w3.org/1999/xlink" width="400" height="400" version="1.1" viewBox="0 0 400 400"><title>blog_boxed</title><desc>Created with Sketch.</desc><g id="Desktop" fill="none" fill-rule="evenodd" stroke="none" stroke-width="1" transform="translate(-1200.000000, -400.000000)"><g id="Blog_Layouts"><g id="blog_boxed" transform="translate(1200.000000, 400.000000)"><g id="Square-Wrapper" stroke="#0085BA" stroke-width="2"><rect id="Rectangle" width="398" height="398" x="1" y="1" rx="6"/></g><g id="Post-1" fill="#0085BA" transform="translate(40.000000, 40.000000)"><g id="Blue-Square"><rect id="Rectangle-2" width="160" height="80" x="0" y="0"/></g><g id="Group-3" transform="translate(20.000000, 100.000000)"><g id="Heading-Line"><rect id="Rectangle-3" width="66" height="4" x="0" y="0"/></g><g id="Heading-Line" transform="translate(0.000000, 18.000000)"><rect id="Rectangle-3" width="120" height="4" x="0" y="0"/></g><g id="Heading-Line" transform="translate(0.000000, 36.000000)"><rect id="Rectangle-3" width="120" height="4" x="0" y="0"/></g></g></g><g id="Post-1-Copy-11" fill="#0085BA" transform="translate(200.000000, 40.000000)"><g id="Blue-Square"><rect id="Rectangle-2" width="160" height="80" x="0" y="0"/></g><g id="Group-3" transform="translate(20.000000, 100.000000)"><g id="Heading-Line"><rect id="Rectangle-3" width="66" height="4" x="0" y="0"/></g><g id="Heading-Line" transform="translate(0.000000, 18.000000)"><rect id="Rectangle-3" width="120" height="4" x="0" y="0"/></g><g id="Heading-Line" transform="translate(0.000000, 36.000000)"><rect id="Rectangle-3" width="120" height="4" x="0" y="0"/></g></g></g><g id="Post-1-Copy-13" fill="#0085BA" transform="translate(40.000000, 200.000000)"><g id="Blue-Square"><rect id="Rectangle-2" width="160" height="80" x="0" y="0"/></g><g id="Group-3" transform="translate(20.000000, 100.000000)"><g id="Heading-Line"><rect id="Rectangle-3" width="66" height="4" x="0" y="0"/></g><g id="Heading-Line" transform="translate(0.000000, 18.000000)"><rect id="Rectangle-3" width="120" height="4" x="0" y="0"/></g><g id="Heading-Line" transform="translate(0.000000, 36.000000)"><rect id="Rectangle-3" width="120" height="4" x="0" y="0"/></g></g></g><g id="Post-1-Copy-12" fill="#0085BA" transform="translate(200.000000, 200.000000)"><g id="Blue-Square"><rect id="Rectangle-2" width="160" height="80" x="0" y="0"/></g><g id="Group-3" transform="translate(20.000000, 100.000000)"><g id="Heading-Line"><rect id="Rectangle-3" width="66" height="4" x="0" y="0"/></g><g id="Heading-Line" transform="translate(0.000000, 18.000000)"><rect id="Rectangle-3" width="120" height="4" x="0" y="0"/></g><g id="Heading-Line" transform="translate(0.000000, 36.000000)"><rect id="Rectangle-3" width="120" height="4" x="0" y="0"/></g></g></g><g id="border" fill="#EEE" transform="translate(39.000000, 40.000000)"><rect id="Rectangle" width="2" height="80" x="1" y="80"/><rect id="Rectangle-Copy" width="1" height="318" x="161" y="0"/><rect id="Rectangle-Copy-2" width="2" height="80" x="319" y="80"/><rect id="Rectangle-Copy-5" width="2" height="80" x="0" y="240"/><rect id="Rectangle-Copy-3" width="2" height="80" x="319" y="240"/><rect id="Rectangle-2" width="320" height="2" x="1" y="318"/></g></g></g></g></svg>