<svg xmlns="http://www.w3.org/2000/svg" xmlns:xlink="http://www.w3.org/1999/xlink" width="400" height="400" version="1.1" viewBox="0 0 400 400"><title>blog_timeline</title><desc>Created with Sketch.</desc><defs><rect id="path-1" width="40" height="20" x="0" y="0" rx="2"/><rect id="path-2" width="40" height="20" x="0" y="0" rx="2"/></defs><g id="Desktop" fill="none" fill-rule="evenodd" stroke="none" stroke-width="1" transform="translate(-400.000000, -400.000000)"><g id="Blog_Layouts"><g id="blog_timeline" transform="translate(400.000000, 400.000000)"><g id="Blue-Square" fill="#0085BA" transform="translate(198.000000, 30.000000)"><rect id="Rectangle-2" width="4" height="340" x="0" y="0"/></g><g id="Square-Wrapper" stroke="#0085BA" stroke-width="2"><rect id="Rectangle" width="398" height="398" x="1" y="1" rx="6"/></g><g id="Timeline-month" transform="translate(180.000000, 40.000000)"><g id="Timeline-Month"><g id="Rectangle"><use fill="#FFF" fill-rule="evenodd" xlink:href="#path-1"/><rect width="38" height="18" x="1" y="1" stroke="#0085BA" stroke-width="2" rx="2"/></g></g><g id="Heading-Line" fill="#0085BA" transform="translate(8.000000, 9.000000)"><rect id="Rectangle-3" width="24" height="2" x="0" y="0"/></g></g><g id="Timeline-month-Copy" transform="translate(180.000000, 220.000000)"><g id="Timeline-Month"><g id="Rectangle"><use fill="#FFF" fill-rule="evenodd" xlink:href="#path-2"/><rect width="38" height="18" x="1" y="1" stroke="#0085BA" stroke-width="2" rx="2"/></g></g><g id="Heading-Line" fill="#0085BA" transform="translate(8.000000, 9.000000)"><rect id="Rectangle-3" width="24" height="2" x="0" y="0"/></g></g><g id="Post-1" fill="#0085BA" transform="translate(40.000000, 40.000000)"><g id="Blue-Square"><rect id="Rectangle-2" width="120" height="80" x="0" y="0"/></g><g id="Group" transform="translate(0.000000, 100.000000)"><g id="Heading-Line"><rect id="Rectangle-3" width="60" height="4" x="0" y="0"/></g><g id="Heading-Line" transform="translate(0.000000, 18.000000)"><rect id="Rectangle-3" width="120" height="4" x="0" y="0"/></g><g id="Heading-Line" transform="translate(0.000000, 36.000000)"><rect id="Rectangle-3" width="120" height="4" x="0" y="0"/></g></g></g><g id="Post-1-Copy-5" fill="#0085BA" transform="translate(240.000000, 40.000000)"><g id="Blue-Square"><rect id="Rectangle-2" width="120" height="80" x="0" y="0"/></g><g id="Group" transform="translate(0.000000, 100.000000)"><g id="Heading-Line"><rect id="Rectangle-3" width="60" height="4" x="0" y="0"/></g><g id="Heading-Line" transform="translate(0.000000, 18.000000)"><rect id="Rectangle-3" width="120" height="4" x="0" y="0"/></g><g id="Heading-Line" transform="translate(0.000000, 36.000000)"><rect id="Rectangle-3" width="120" height="4" x="0" y="0"/></g></g></g><g id="Post-1-Copy-10" fill="#0085BA" transform="translate(40.000000, 220.000000)"><g id="Blue-Square"><rect id="Rectangle-2" width="120" height="80" x="0" y="0"/></g><g id="Group" transform="translate(0.000000, 100.000000)"><g id="Heading-Line"><rect id="Rectangle-3" width="60" height="4" x="0" y="0"/></g><g id="Heading-Line" transform="translate(0.000000, 18.000000)"><rect id="Rectangle-3" width="120" height="4" x="0" y="0"/></g><g id="Heading-Line" transform="translate(0.000000, 36.000000)"><rect id="Rectangle-3" width="120" height="4" x="0" y="0"/></g></g></g><g id="Post-1-Copy-9" fill="#0085BA" transform="translate(240.000000, 220.000000)"><g id="Blue-Square"><rect id="Rectangle-2" width="120" height="80" x="0" y="0"/></g><g id="Group" transform="translate(0.000000, 100.000000)"><g id="Heading-Line"><rect id="Rectangle-3" width="60" height="4" x="0" y="0"/></g><g id="Heading-Line" transform="translate(0.000000, 18.000000)"><rect id="Rectangle-3" width="120" height="4" x="0" y="0"/></g><g id="Heading-Line" transform="translate(0.000000, 36.000000)"><rect id="Rectangle-3" width="120" height="4" x="0" y="0"/></g></g></g></g></g></g></svg>