<svg xmlns="http://www.w3.org/2000/svg" xmlns:xlink="http://www.w3.org/1999/xlink" width="400" height="400" version="1.1" viewBox="0 0 400 400"><title>blog_masonry</title><desc>Created with Sketch.</desc><g id="Desktop" fill="none" fill-rule="evenodd" stroke="none" stroke-width="1" transform="translate(-800.000000, -400.000000)"><g id="Blog_Layouts"><g id="blog_masonry" transform="translate(800.000000, 400.000000)"><g id="Square-Wrapper" stroke="#0085BA" stroke-width="2"><rect id="Rectangle" width="398" height="398" x="1" y="1" rx="6"/></g><g id="Post-1" fill="#0085BA" transform="translate(40.000000, 40.000000)"><g id="Blue-Square"><rect id="Rectangle-2" width="90" height="100" x="0" y="0"/></g><g id="Group-3" transform="translate(0.000000, 120.000000)"><g id="Heading-Line"><rect id="Rectangle-3" width="50" height="4" x="0" y="0"/></g><g id="Heading-Line" transform="translate(0.000000, 18.000000)"><rect id="Rectangle-3" width="90" height="4" x="0" y="0"/></g><g id="Heading-Line" transform="translate(0.000000, 36.000000)"><rect id="Rectangle-3" width="90" height="4" x="0" y="0"/></g></g></g><g id="Group-2" fill="#0085BA" transform="translate(40.000000, 240.000000)"><g id="Blue-Square" transform="translate(115.000000, 60.000000)"><rect id="Rectangle-2" width="90" height="100" x="0" y="0"/></g><rect id="Rectangle-6-Copy-2" width="90" height="160" x="0" y="0"/><g id="Blue-Square"><rect id="Rectangle-2" width="90" height="160" x="0" y="0"/></g><g id="Blue-Square" transform="translate(230.000000, 20.000000)"><rect id="Rectangle-2" width="90" height="140" x="0" y="0"/></g></g><g id="Post-1-Copy-6" fill="#0085BA" transform="translate(155.000000, 40.000000)"><g id="Blue-Square"><rect id="Rectangle-2" width="90" height="160" x="0" y="0"/></g><g id="Group-3-Copy" transform="translate(0.000000, 180.000000)"><g id="Heading-Line"><rect id="Rectangle-3" width="50" height="4" x="0" y="0"/></g><g id="Heading-Line" transform="translate(0.000000, 18.000000)"><rect id="Rectangle-3" width="90" height="4" x="0" y="0"/></g><g id="Heading-Line" transform="translate(0.000000, 36.000000)"><rect id="Rectangle-3" width="90" height="4" x="0" y="0"/></g></g></g><g id="Post-1-Copy-7" fill="#0085BA" transform="translate(270.000000, 40.000000)"><g id="Blue-Square"><rect id="Rectangle-2" width="90" height="120" x="0" y="0"/></g><g id="Group-3-Copy-2" transform="translate(0.000000, 140.000000)"><g id="Heading-Line"><rect id="Rectangle-3" width="50" height="4" x="0" y="0"/></g><g id="Heading-Line" transform="translate(0.000000, 18.000000)"><rect id="Rectangle-3" width="90" height="4" x="0" y="0"/></g><g id="Heading-Line" transform="translate(0.000000, 36.000000)"><rect id="Rectangle-3" width="90" height="4" x="0" y="0"/></g></g></g></g></g></g></svg>