<svg xmlns="http://www.w3.org/2000/svg" xmlns:xlink="http://www.w3.org/1999/xlink" width="100" height="100" version="1.1" viewBox="0 0 100 100"><title>wc-layout-default</title><desc>Created with Sketch.</desc><g id="wc-layout-default" fill="none" fill-rule="evenodd" stroke="none" stroke-width="1"><rect id="Wrapper" width="99" height="99" x=".5" y=".5" fill="#FFF" fill-rule="nonzero" stroke="#0085BA"/><g id="Large-Slider" fill-rule="nonzero" transform="translate(6.000000, 7.000000)"><g id="Group"><rect id="Rectangle-2" width="54" height="38" x="0" y="0" fill="#0085BA"/><g id="image_icon" fill="#FFF" fill-opacity=".6" transform="translate(23.000000, 15.000000)"><path id="Shape" d="M7.98258957,0 L1.0179226,0 C0.456524141,0 0,0.445116434 0,0.993313699 L0,7.23637434 C0,7.78392515 0.456524141,8.22857143 1.0179226,8.22857143 L7.98255944,8.22857143 C8.5439579,8.22857143 9,7.78392515 9,7.23637434 L9,0.993313699 C9.00003013,0.445116434 8.54398803,0 7.98258957,0 Z M5.81987688,1.47724706 C6.36277697,1.47724706 6.80306231,1.90670155 6.80306231,2.43618089 C6.80306231,2.96566023 6.36274684,3.39511472 5.81987688,3.39511472 C5.27682615,3.39511472 4.83669145,2.96566023 4.83669145,2.43618089 C4.83669145,1.90670155 5.27682615,1.47724706 5.81987688,1.47724706 Z M7.66335709,7.31083467 L4.49992468,7.31083467 L1.47742938,7.31083467 C1.20588895,7.31083467 1.0849566,7.11921833 1.2073652,6.88282001 L2.89469385,3.62319723 C3.01695182,3.3868283 3.24995899,3.36573022 3.41496808,3.5760351 L5.1116363,5.7386169 C5.27664539,5.94895116 5.56505729,5.96684632 5.75594602,5.77840351 L6.17101453,5.36846033 C6.36175263,5.18001752 6.64278326,5.20334881 6.79845278,5.42023582 L7.87325636,6.91764065 C8.02862461,7.13485089 7.93489752,7.31083467 7.66335709,7.31083467 Z"/></g></g><circle id="Oval" cx="51" cy="20" r="2" fill="#FFF" fill-opacity=".5"/><circle id="Oval-Copy" cx="4" cy="20" r="2" fill="#FFF" fill-opacity=".5"/></g><rect id="Rectangle-5" width="6" height="6" x="6" y="48" fill="#0085BA" fill-rule="nonzero" rx=".5"/><rect id="Rectangle-5-Copy" width="6" height="6" x="15" y="48" fill="#0085BA" fill-rule="nonzero" rx=".5"/><rect id="Rectangle-5-Copy-2" width="6" height="6" x="24" y="48" fill="#0085BA" fill-rule="nonzero" rx=".5"/><rect id="Rectangle-6" width="54" height="36" x="6" y="57" fill="#D8D8D8" fill-rule="nonzero"/><rect id="Rectangle-6-Copy" width="30" height="86" x="64" y="7" fill="#D8D8D8" fill-rule="nonzero"/></g></svg>