<svg xmlns="http://www.w3.org/2000/svg" xmlns:svg="http://www.w3.org/2000/svg" xmlns:xlink="http://www.w3.org/1999/xlink" id="svg2" x="0" y="0" enable-background="new -243.4 335.3 101.3 79.8" version="1.1" viewBox="-243.4 335.3 101.3 79.8" xml:space="preserve"><path id="polygon287" fill="#FFF" d="M-213.9,386.2l-9.3,4l8.6,3.7l10-3.7L-213.9,386.2z M-227.8,391.1l-0.3,17.9l13.6,6v-18.6	L-227.8,391.1z M-199.9,391.1l-12.3,4.7v17.6l12.3-5V391.1z"/><path id="polygon311" fill="#FFF" d="M-185.3,335.3l-9.3,4l8.7,3.7l10-3.7L-185.3,335.3z M-198.2,340.6v17.9l11.6,3.4l0.4-16.3	L-198.2,340.6z M-172.3,341.6l-11,4.7v17.6l11-5V341.6z"/><path id="use3387" fill="#FFF" d="M-229.2,360.6l-9.3,4l8.6,3.7l10-3.7L-229.2,360.6z M-243.1,365.6l-0.3,17.9l13.6,6v-18.6	L-243.1,365.6z M-215.2,365.6l-12.3,4.7v17.6l12.3-5V365.6z"/><path id="use3389" fill="#FFF" d="M-199.2,359.9l-9.3,4l8.6,3.7l10-3.7L-199.2,359.9z M-213.2,364.9l-0.3,17.9l13.6,6v-18.6	L-213.2,364.9z M-185.3,364.9l-12.3,4.7v17.6l12.3-5V364.9z"/><path id="use3391" fill="#FFF" d="M-156,335.3l-9.3,4l8.6,3.7l10-3.7L-156,335.3z M-170,340.3l-0.3,17.9l13.6,6v-18.6L-170,340.3	z M-142.1,340.3l-12.3,4.7v17.6l12.3-5V340.3z"/></svg>