<svg xmlns="http://www.w3.org/2000/svg" xmlns:xlink="http://www.w3.org/1999/xlink" width="412" height="412" version="1.1" viewBox="0 0 412 412"><title>Untitled 5</title><desc>Created with Sketch.</desc><g id="Page-1" fill="none" fill-rule="evenodd" stroke="none" stroke-width="1"><path id="crop-6" fill="#FFF" d="M412,309 L343.334,309 L343.334,68.667 L103,68.667 L103,0 L68.667,0 L68.667,68.667 L0,68.667 L0,103 L68.667,103 L68.667,343.334 L309,343.334 L309,412 L343.334,412 L343.334,343.334 L412,343.334 L412,309 L412,309 Z M103,309 L103,103 L309,103 L309,309 L103,309 L103,309 Z M137.333,163.083 C137.333,148.867 148.867,137.333 163.083,137.333 C177.3,137.333 188.833,148.867 188.833,163.083 C188.833,177.299 177.3,188.833 163.083,188.833 C148.867,188.833 137.333,177.299 137.333,163.083 L137.333,163.083 Z M228.18,171.667 L197.081,237.484 L171.667,215.624 L137.333,274.667 L279.68,274.667 L228.18,171.667 L228.18,171.667 Z"/></g></svg>