<svg 
 xmlns="http://www.w3.org/2000/svg"
 xmlns:xlink="http://www.w3.org/1999/xlink"
 width="35px" height="40px">
<path fill-rule="evenodd"  fill="#010101"
 d="M34.349,3.647 L32.801,7.631 C32.164,9.274 31.430,11.137 30.606,13.226 C29.777,15.313 28.921,17.464 28.031,19.676 C27.141,21.888 26.268,24.077 25.410,26.241 C24.549,28.409 23.763,30.382 23.046,32.168 C22.334,33.945 21.739,35.451 21.264,36.673 C20.789,37.889 20.490,38.671 20.365,39.020 C20.109,39.651 19.607,40.000 18.981,40.000 L18.748,40.000 C18.748,40.000 17.969,40.000 17.631,39.100 C17.478,38.724 17.176,37.943 16.695,36.694 L14.956,32.157 C14.272,30.374 13.510,28.400 12.669,26.237 L10.119,19.667 C9.258,17.454 8.431,15.293 7.637,13.190 L5.517,7.605 C4.895,5.980 4.394,4.657 4.012,3.636 C3.391,1.977 3.391,1.967 3.391,1.791 C3.391,1.366 3.543,0.989 3.829,0.703 C4.115,0.416 4.475,0.265 4.869,0.265 C5.582,0.265 6.122,0.646 6.312,1.285 L16.655,28.251 L27.330,1.224 C27.500,0.646 28.040,0.265 28.752,0.265 C29.148,0.265 29.508,0.416 29.794,0.703 C30.080,0.989 30.231,1.349 30.231,1.743 C30.231,1.913 30.231,1.977 29.701,3.356 L26.652,11.259 C25.983,12.999 25.282,14.785 24.549,16.619 C23.819,18.448 23.104,20.253 22.406,22.034 C21.708,23.819 21.063,25.451 20.475,26.933 C19.886,28.418 19.384,29.667 18.972,30.686 C18.658,31.458 18.426,32.022 18.276,32.377 L18.999,34.303 L32.097,1.223 C32.267,0.646 32.807,0.265 33.520,0.265 C33.916,0.265 34.276,0.416 34.562,0.703 C34.847,0.989 34.999,1.349 34.999,1.743 C34.999,1.918 34.999,1.983 34.349,3.647 ZM21.762,3.160 C20.822,2.973 19.804,2.878 18.737,2.878 C16.537,2.878 14.440,3.303 12.503,4.143 C11.415,4.615 10.350,5.217 9.406,5.889 L8.293,3.155 C9.210,2.561 10.301,1.947 11.333,1.500 C14.604,0.087 18.270,-0.374 22.124,0.309 C23.266,0.513 25.077,1.086 26.170,1.497 L24.910,4.194 C23.984,3.763 22.705,3.351 21.762,3.160 ZM5.221,10.653 C4.732,11.415 4.496,11.915 4.129,12.765 C3.290,14.705 2.866,16.806 2.866,19.009 C2.866,21.212 3.290,23.313 4.129,25.254 C4.972,27.203 6.141,28.931 7.602,30.395 C9.065,31.861 10.792,33.033 12.735,33.874 C13.413,34.169 14.119,34.411 14.842,34.602 L15.697,37.742 C14.265,37.497 12.883,37.088 11.564,36.518 C9.271,35.526 7.246,34.160 5.545,32.457 C3.844,30.754 2.481,28.723 1.491,26.425 C0.499,24.123 -0.005,21.627 -0.005,19.009 C-0.005,16.390 0.499,13.895 1.491,11.592 C2.020,10.364 2.957,8.735 3.693,7.670 L5.221,10.653 ZM24.664,34.074 C26.373,33.367 28.061,32.334 29.681,31.011 C29.909,30.771 30.262,30.617 30.643,30.617 C30.918,30.617 31.321,30.703 31.687,31.110 C31.957,31.402 32.103,31.755 32.103,32.123 C32.103,32.503 31.938,32.862 31.614,33.187 C29.894,34.813 27.907,36.037 25.691,36.832 C24.438,37.278 23.168,37.599 21.891,37.793 L23.166,34.589 C23.683,34.445 24.184,34.274 24.664,34.074 Z"/>
</svg>